# xmcd CD database file
#
# Track frame offsets:
#	150
#	24805
#	40077
#	56204
#	80742
#	98433
#	113810
#	130010
#	146028
#	171399
#	187606
#	213007
#	230897
#	253279
#	270741
#	287300
#	304010
#	319305
#
# Disc length: 4459 seconds
#
# Revision: 0
# Processed by: cddbd v1.5.1PL2 Copyright (c) Steve Scherf et al.
# Submitted via: CDex 1.51
#
DISCID=f9116912
DTITLE=Various Artist - Deep Heat The 2nd Attack CD 2
DYEAR=1999
DGENRE=Mix
TTITLE0=John B. Norman - I can´t Stop
TTITLE1=Sequentiol One - Angels
TTITLE2=DJ Sakin - Nomansland
TTITLE3=Boney M - Ma Baker
TTITLE4=Corona - Magic Touch
TTITLE5=Simone Jay - Luv Thang
TTITLE6=Touché - This Goodbye is not Forever
TTITLE7=Fiocco - Going On
TTITLE8=Mellow Trax - Phuture Vibes
TTITLE9=DJ Wag - Man on the Moon
TTITLE10=Scooter - Call me Manana
TTITLE11=S Attack - In my House 
TTITLE12=Bacon Popper - Rejoice in Love
TTITLE13=R´n`G - Darlin i think about you
TTITLE14=Lamar - Shine
TTITLE15=Craig Smart - I´ll be Ready
TTITLE16=Olli P - I wish 
TTITLE17=Emilia - Big Big World
EXTD=YEAR: 1999
EXTT0=
EXTT1=
EXTT2=
EXTT3=
EXTT4=
EXTT5=
EXTT6=
EXTT7=
EXTT8=
EXTT9=
EXTT10=
EXTT11=
EXTT12=
EXTT13=
EXTT14=
EXTT15=
EXTT16=
EXTT17=
PLAYORDER=
